HIERARCHY
ROOT Hips
{
	OFFSET 0.000000 0.000000 0.000000 
	CHANNELS 6 Xposition Yposition Zposition Yrotation Zrotation Xrotation 
	JOINT Lumbar
	{
		OFFSET 0.000000 0.000000 0.000000 
		CHANNELS 3 Zrotation Xrotation Yrotation
		JOINT Neck
		{
			OFFSET 0.000000 0.445665 0.000000 
			CHANNELS 3 Zrotation Xrotation Yrotation
			End Site
			{
				OFFSET 0.000000 0.227535 0.000000 
			}
		}
		JOINT RightShoulder
		{
			OFFSET 0.019635 0.377685 0.194865 
			CHANNELS 3 Zrotation Xrotation Yrotation
			JOINT RightElbow
			{
				OFFSET 0.000000 -0.243375 0.000000 
				CHANNELS 2 Zrotation Yrotation
				JOINT RightWrist
				{
					OFFSET 0.000000 -0.264825 0.000000 
					CHANNELS 2 Zrotation Xrotation
					End Site
					{
						OFFSET 0.006600 -0.176220 0.000990 
					}
				}
			}
		}
		JOINT LeftShoulder
		{
			OFFSET 0.019635 0.377685 -0.194865 
			CHANNELS 3 Zrotation Xrotation Yrotation
			JOINT LeftElbow
			{
				OFFSET 0.000000 -0.243375 0.000000 
				CHANNELS 2 Zrotation Yrotation
				JOINT LeftWrist
				{
					OFFSET 0.000000 -0.264825 0.000000 
					CHANNELS 2 Zrotation Xrotation
					End Site
					{
						OFFSET 0.006600 -0.176220 -0.000990 
					}
				}
			}
		}
	}
	JOINT RightHip
	{
		OFFSET 0.052140 -0.069960 0.075570 
		CHANNELS 3 Zrotation Xrotation Yrotation
		JOINT RightKnee
		{
			OFFSET 0.000000 -0.402270 0.000000 
			CHANNELS 1 Zrotation
			JOINT RightAnkle
			{
				OFFSET 0.000000 -0.404085 0.000000 
				CHANNELS 3 Zrotation Xrotation Yrotation
				End Site
				{
					OFFSET 0.204105 -0.089430 0.008415 
				}
			}
		}
	}
	JOINT LeftHip
	{
		OFFSET 0.052140 -0.069960 -0.075570 
		CHANNELS 3 Zrotation Xrotation Yrotation
		JOINT LeftKnee
		{
			OFFSET 0.000000 -0.402270 0.000000 
			CHANNELS 1 Zrotation
			JOINT LeftAnkle
			{
				OFFSET 0.000000 -0.404085 0.000000 
				CHANNELS 3 Zrotation Xrotation Yrotation
				End Site
				{
					OFFSET 0.204105 -0.089430 -0.008415 
				}
			}
		}
	}
}
MOTION
Frames: 35
Frame Time: 0.02
0 0.95578 -0 180.59781 0 -4.97069 7.12834 4.08508 -2.37542 -22.24259 4.19344 2.52198 5.58871 -71.16554 -78.70912 24.37181 63.79245 -29.14778 -0.54906 21.4434 65.67775 59.82175 19.49427 -83.37954 -23.11696 3.4369 0.58052 8.89298 -7.24038 -10.53089 8.38258 -6.41543 -9.75936 0.29284 1.87395 1.24179 -6.6394 5.19475 4.73128 8.41804
-0.00032 0.95577 9e-05 180.52273 0 -4.96834 7.09599 4.08915 -2.31228 -22.10706 3.96821 2.43393 5.55149 -70.84089 -78.79029 24.37656 63.94213 -29.07856 -0.54426 21.52722 65.96445 59.53776 19.42899 -83.32355 -23.16035 3.37938 0.54611 8.88744 -7.16928 -10.48045 8.2888 -6.38006 -9.75482 0.25321 1.86734 1.27076 -6.61523 5.19869 4.7377 8.43354
-0.00065 0.95575 0.00018 180.44761 0 -4.96583 7.06358 4.09322 -2.24891 -21.97165 3.74325 2.34586 5.51355 -70.51685 -78.87125 24.38148 64.09173 -29.00954 -0.53957 21.61013 66.25119 59.2546 19.36404 -83.26646 -23.20401 3.32224 0.51176 8.8817 -7.0983 -10.42983 8.19359 -6.34402 -9.75013 0.21348 1.86056 1.30018 -6.59086 5.20261 4.74405 8.44876
-0.00097 0.95573 0.00027 180.37203 0 -4.9627 7.03066 4.09732 -2.18366 -21.83545 3.51639 2.25626 5.47257 -70.19094 -78.95238 24.38716 64.24309 -28.94073 -0.53531 21.69168 66.54221 58.97087 19.29937 -83.20435 -23.24951 3.2663 0.47709 8.8752 -7.02791 -10.37744 8.09138 -6.30481 -9.74472 0.17307 1.85312 1.33157 -6.56535 5.20627 4.75013 8.46298
-0.00129 0.95571 0.00036 180.29939 0 -4.96293 7.00048 4.10125 -2.12799 -21.7035 3.29864 2.17405 5.44792 -69.8736 -79.03287 24.38884 64.38592 -28.87091 -0.52881 21.78213 66.81211 58.68885 19.23274 -83.16871 -23.28564 3.2043 0.44388 8.87283 -6.95539 -10.3338 8.02583 -6.28222 -9.74301 0.1364 1.84925 1.35241 -6.54575 5.21107 4.75754 8.48244
-0.00162 0.95568 0.00045 180.22028 0 -4.95598 6.96451 4.10554 -2.05236 -21.56264 3.06246 2.07676 5.3886 -69.53935 -79.11446 24.39895 64.5461 -28.80321 -0.52703 21.85252 67.12539 58.40437 19.17064 -83.07717 -23.34133 3.15498 0.40774 8.86163 -6.88675 -10.27214 7.8831 -6.22461 -9.73354 0.09175 1.83777 1.39559 -6.51375 5.21359 4.76219 8.49084
-0.00199 0.95562 0.00056 180.12327 0 -4.92878 6.91134 4.11102 -1.91518 -21.39293 2.76173 1.92967 5.22973 -69.13955 -79.20318 24.43373 64.76507 -28.74061 -0.53896 21.87779 67.58034 58.09702 19.11695 -82.82285 -23.45655 3.14237 0.361 8.82563 -6.83331 -10.15317 7.51259 -6.06402 -9.70131 0.02413 1.80458 1.50369 -6.44466 5.20852 4.75871 8.46751
-0.00238 0.95554 0.00068 180.0197 0 -4.8944 6.85252 4.11686 -1.75886 -21.21494 2.44455 1.76867 5.03644 -68.72569 -79.29251 24.47681 64.99984 -28.68035 -0.55555 21.88139 68.0756 57.78957 19.06846 -82.5136 -23.59062 3.14232 0.31163 8.78074 -6.78295 -10.01717 7.06626 -5.86899 -9.66151 -0.05141 1.76378 1.63382 -6.36355 5.20139 4.75253 8.43323
-0.00277 0.95547 0.00079 179.9189 0 -4.86354 6.79696 4.12241 -1.61528 -21.04314 2.1434 1.61922 4.8611 -68.33005 -79.37882 24.51521 65.22052 -28.61929 -0.56956 21.88766 68.53875 57.49252 19.0203 -82.23431 -23.71266 3.13534 0.26512 8.74012 -6.72813 -9.89386 6.66387 -5.69364 -9.62595 -0.1228 1.72687 1.75201 -6.28967 5.19602 4.74789 8.40471
-0.00314 0.9554 0.00091 179.81864 0 -4.83157 6.73836 4.12844 -1.45464 -20.86065 1.80622 1.44789 4.67579 -67.88459 -79.4761 24.55741 65.47014 -28.55661 -0.58547 21.92237 69.05995 57.15276 18.96106 -81.93295 -23.8494 3.13324 0.21191 8.69853 -6.68603 -9.75006 6.22224 -5.50148 -9.5868 -0.19659 1.68818 1.8786 -6.20819 5.18711 4.7419 8.37285
-0.00356 0.95533 0.00102 179.71618 0 -4.80022 6.6849 4.13364 -1.32501 -20.69905 1.54013 1.31862 4.50337 -67.53949 -79.55142 24.5937 65.66351 -28.4985 -0.59861 21.89503 69.46991 56.90075 18.92577 -81.66575 -23.95987 3.1243 0.17166 8.65687 -6.61843 -9.6444 5.84342 -5.33591 -9.55361 -0.26718 1.65135 1.99256 -6.13987 5.18518 4.73811 8.3454
-0.00412 0.95525 0.00108 179.60507 0 -4.77216 6.64572 4.13566 -1.28554 -20.5918 1.47466 1.31076 4.37238 -67.47518 -79.55946 24.61123 65.6959 -28.44673 -0.6024 21.68124 69.56218 56.90105 18.95875 -81.49559 -23.99423 3.09062 0.1708 8.61702 -6.47564 -9.65254 5.66445 -5.25433 -9.53787 -0.32773 1.62173 2.06956 -6.10898 5.20209 4.74082 8.33224
-0.00474 0.95517 0.00113 179.49276 0 -4.74501 6.61213 4.13702 -1.27797 -20.50679 1.48125 1.34539 4.25602 -67.51232 -79.54644 24.6226 65.67173 -28.40039 -0.60339 21.40932 69.54114 56.98782 19.01516 -81.36364 -24.00129 3.05018 0.18252 8.57755 -6.30671 -9.69892 5.54997 -5.20029 -9.5297 -0.38467 1.5942 2.13244 -6.09205 5.22625 4.74588 8.32402
-0.00535 0.9551 0.00118 179.38375 0 -4.71753 6.57683 4.13917 -1.25588 -20.41522 1.45459 1.35932 4.13466 -67.50283 -79.54754 24.63705 65.67434 -28.35549 -0.60602 21.17776 69.57253 57.02847 19.05846 -81.22127 -24.02024 3.01464 0.18647 8.53788 -6.15374 -9.72485 5.40066 -5.13222 -9.51713 -0.44273 1.56557 2.19969 -6.06996 5.24768 4.74999 8.3139
-0.00592 0.95502 0.00123 179.26287 0 -4.68939 6.53787 4.13914 -1.23316 -20.30869 1.42934 1.37853 4.00518 -67.49498 -79.5301 24.65059 65.67194 -28.29479 -0.60716 20.88765 69.60181 57.09789 19.11177 -81.04786 -24.0422 2.97172 0.19891 8.49759 -5.98816 -9.7628 5.2715 -5.06933 -9.50359 -0.50313 1.53729 2.27656 -6.04261 5.26665 4.75349 8.30191
-0.00657 0.95494 0.00129 179.16654 0 -4.663 6.50789 4.14367 -1.21963 -20.23832 1.41867 1.39714 3.89647 -67.5081 -79.54544 24.66445 65.66759 -28.26752 -0.61082 20.70459 69.60752 57.12794 19.15043 -80.94869 -24.05095 2.94252 0.19683 8.45933 -5.83693 -9.78545 5.11733 -5.00269 -9.49994 -0.55786 1.50889 2.32952 -6.02951 5.29249 4.7589 8.29517
-0.0074 0.95485 0.0014 179.13809 0 -4.64084 6.50172 4.15933 -1.2235 -20.2663 1.42992 1.40325 3.8429 -67.55432 -79.66355 24.68058 65.66161 -28.33766 -0.62105 20.84384 69.57906 57.02753 19.13731 -81.04989 -24.03195 2.95202 0.1503 8.42184 -5.7842 -9.75269 4.87333 -4.91877 -9.4669 -0.59637 1.47947 2.32158 -6.05387 5.33568 4.76868 8.30147
-0.0083 0.95476 0.00153 179.1345 0 -4.62053 6.50438 4.1799 -1.23578 -20.32953 1.45402 1.40777 3.80993 -67.61878 -79.81405 24.69712 65.65781 -28.44019 -0.63416 21.09097 69.52929 56.88439 19.10989 -81.22569 -24.0005 2.97583 0.08892 8.3871 -5.73968 -9.70394 4.60342 -4.83049 -9.45118 -0.62951 1.44994 2.28958 -6.0919 5.38556 4.78038 8.31294
-0.00917 0.95467 0.00166 179.11967 0 -4.59962 6.50272 4.19929 -1.24422 -20.37366 1.47224 1.41302 3.76645 -67.67426 -79.94504 24.71365 65.65903 -28.52348 -0.6466 21.28014 69.48789 56.76147 19.09233 -81.36226 -23.97284 2.9933 0.03527 8.35454 -5.65355 -9.66516 4.3488 -4.74429 -9.46689 -0.66601 1.42057 2.26748 -6.1227 5.43229 4.79145 8.32235
-0.01002 0.95458 0.00176 179.10439 0 -4.57764 6.5024 4.21421 -1.25325 -20.43024 1.49135 1.41845 3.72718 -67.7339 -80.09551 24.72966 65.63128 -28.62545 -0.65602 21.50341 69.45105 56.63913 19.06039 -81.51528 -23.95059 3.00904 -0.02185 8.30839 -5.71538 -9.61656 4.08079 -4.65796 -9.32779 -0.69855 1.39073 2.24952 -6.15815 5.47964 4.80161 8.33092
-0.01093 0.95449 0.00191 179.09617 0 -4.55841 6.50149 4.23961 -1.26337 -20.47062 1.51298 1.42412 3.68528 -67.79078 -80.21337 24.74638 65.66715 -28.69689 -0.67273 21.68399 69.39745 56.50315 19.05595 -81.66046 -23.91639 3.0329 -0.07574 8.2901 -5.48518 -9.58378 3.83463 -4.57135 -9.50157 -0.73805 1.3619 2.21709 -6.18716 5.52731 4.81408 8.34214
-0.01199 0.95439 0.00216 179.10016 0 -4.54566 6.49527 4.29276 -1.26775 -20.44414 1.51844 1.41749 3.61971 -67.80933 -80.23315 24.76972 65.86344 -28.67003 -0.70689 21.70521 69.33404 56.34444 19.12198 -81.68984 -23.83778 3.06725 -0.11422 8.35782 -4.32585 -9.60188 3.64716 -4.47779 -10.65422 -0.79848 1.33521 2.15267 -6.19355 5.5731 4.83259 8.3618
-0.01312 0.9543 0.00245 179.11095 0 -4.53572 6.48844 4.35623 -1.27385 -20.40296 1.52925 1.41339 3.55353 -67.82809 -80.21891 24.79283 66.12822 -28.61272 -0.7489 21.68374 69.2489 56.16877 19.2189 -81.72463 -23.75183 3.11111 -0.14942 8.4518 -2.89357 -9.63593 3.4839 -4.38528 -12.10069 -0.86599 1.30967 2.0738 -6.19327 5.61918 4.85333 8.38351
-0.01422 0.9542 0.00272 179.11901 0 -4.52495 6.48279 4.41503 -1.28357 -20.37679 1.55046 1.41676 3.49411 -67.86445 -80.22069 24.81305 66.36968 -28.57294 -0.78833 21.69086 69.15419 56.00186 19.306 -81.80412 -23.67705 3.1559 -0.18821 8.5272 -1.66739 -9.65997 3.31431 -4.29694 -13.33218 -0.93008 1.28405 2.00079 -6.19684 5.66575 4.87294 8.40265
-0.0153 0.95411 0.00298 179.12507 0 -4.51243 6.47347 4.47411 -1.27568 -20.31511 1.51841 1.38392 3.40518 -67.83 -80.22209 24.84623 66.57206 -28.51753 -0.82274 21.65928 69.1421 55.84319 19.37008 -81.67937 -23.56287 3.17809 -0.2191 8.63022 -0.10099 -9.69396 3.12357 -4.18897 -14.9007 -0.99509 1.25653 1.93158 -6.19711 5.70979 4.8931 8.42878
-0.01643 0.95401 0.00327 179.13827 0 -4.50411 6.47176 4.53474 -1.30392 -20.32543 1.59784 1.42683 3.38091 -67.93883 -80.21471 24.85195 66.87983 -28.48849 -0.87062 21.70132 68.95136 55.64619 19.49553 -81.99008 -23.53655 3.25058 -0.26491 8.68259 0.82916 -9.71268 2.98364 -4.12204 -15.84614 -1.05963 1.23325 1.84923 -6.2029 5.75927 4.91263 8.44089
-0.01768 0.95391 0.00366 179.15573 0 -4.50725 6.48909 4.59919 -1.43843 -20.52054 1.98732 1.6805 3.50458 -68.47452 -80.20081 24.78513 67.39375 -28.52491 -0.94331 21.91678 68.28681 55.49653 19.73491 -83.4172 -23.69372 3.44942 -0.35653 8.58274 -0.12902 -9.6748 2.97275 -4.16961 -14.91828 -1.12339 1.22137 1.75185 -6.22232 5.82197 4.92977 8.41256
-0.01898 0.95381 0.00407 179.18305 0 -4.51433 6.51439 4.66437 -1.60775 -20.79137 2.48735 2.00964 3.69919 -69.14651 -80.17754 24.68989 68.0226 -28.59 -1.03098 22.21411 67.44042 55.27976 20.0457 -85.29674 -23.95246 3.70014 -0.46183 8.43196 -1.72495 -9.6243 3.01346 -4.25831 -13.36812 -1.18591 1.21368 1.6382 -6.24818 5.89044 4.9462 8.37015
-0.02027 0.9537 0.00447 179.21425 0 -4.51936 6.53752 4.72793 -1.75672 -21.03936 2.93527 2.30314 3.88108 -69.73794 -80.15196 24.60577 68.6454 -28.65346 -1.11893 22.5007 66.66849 54.99813 20.35319 -87.02575 -24.20282 3.93404 -0.55917 8.30859 -2.9863 -9.585 3.03392 -4.32709 -12.15596 -1.24769 1.20414 1.52091 -6.27304 5.95738 4.96306 8.33508
-0.02153 0.95361 0.00487 179.20861 0 -4.52594 6.55485 4.79757 -1.92544 -21.23946 3.39422 2.60354 3.97966 -70.41593 -80.15207 24.53001 69.08173 -28.67404 -1.17824 22.67691 65.93148 55.12465 20.53175 -88.52697 -24.28737 4.14078 -0.66653 8.16878 -4.42653 -9.51805 3.04094 -4.40059 -10.72153 -1.31567 1.19456 1.45109 -6.28914 6.0197 4.97963 8.2965
-0.02284 0.95348 0.00529 179.28421 0 -4.52976 6.58573 4.85425 -2.06056 -21.55563 3.85268 2.90603 4.26973 -70.93605 -80.09799 24.42911 69.92521 -28.78323 -1.2994 23.09952 65.07739 54.37758 21.00409 -90.60436 -24.74908 4.415 -0.75286 8.04998 -5.64987 -9.51191 3.08887 -4.47464 -9.59786 -1.36976 1.18586 1.27697 -6.3256 6.09301 4.99648 8.26138
-0.02427 0.95328 0.00575 179.56251 0 -4.5284 6.65536 4.87768 -2.10024 -22.18917 4.31429 3.20795 5.06082 -71.07029 -79.88314 24.27315 71.92986 -29.19734 -1.59884 24.21139 63.9546 51.30296 22.19383 -94.20811 -26.16183 4.87354 -0.80681 8.00789 -6.11267 -9.62224 3.22889 -4.53444 -9.4864 -1.39107 1.18007 0.83415 -6.41211 6.19506 5.01529 8.24314
-0.02574 0.95304 0.00623 179.92595 0 -4.5234 6.73759 4.88747 -2.1037 -22.93367 4.76561 3.50696 6.04346 -71.02445 -79.61406 24.09098 74.3274 -29.68683 -1.95812 25.56229 62.71698 47.34083 23.68925 -98.36544 -27.96199 5.39601 -0.83349 7.98713 -6.337 -9.80458 3.40991 -4.59419 -9.70607 -1.39758 1.17471 0.28429 -6.51941 6.30788 5.03414 8.22809
-0.02717 0.95281 0.00669 180.26279 0 -4.5179 6.81205 4.90175 -2.11997 -23.61789 5.20101 3.79955 6.94604 -71.00753 -79.38219 23.91656 76.50262 -30.09838 -2.28238 26.78615 61.52731 43.73774 25.09667 -102.24163 -29.62902 5.88235 -0.85393 7.95277 -6.67633 -9.98926 3.57725 -4.65798 -9.77307 -1.40715 1.16824 -0.22671 -6.62071 6.41607 5.05239 8.20907
-0.02868 0.95261 0.00719 180.54828 0 -4.52191 6.89597 4.92343 -2.15321 -24.3481 5.7275 4.12807 7.82423 -71.22258 -79.10794 23.76073 78.86839 -30.69699 -2.63931 28.09433 60.35531 40.31101 26.29824 -106.26669 -31.12221 6.401 -0.95448 7.93435 -7.01224 -10.02429 3.72478 -4.70721 -9.83297 -1.43151 1.16595 -0.69757 -6.70919 6.52389 5.07337 8.20036
